<svg width="35" height="48" viewBox="0 0 35 48" fill="none" xmlns="http://www.w3.org/2000/svg">
<path d="M32.0833 0C33.6966 0 35 1.34344 35 3C35 4.65656 33.6966 6 32.0833 6V7.02938C32.0833 11.0063 30.543 14.8219 27.8086 17.6344L21.6289 24L27.8086 30.3656C30.543 33.1781 32.0833 36.9938 32.0833 40.9688V42C33.6966 42 35 43.3406 35 45C35 46.6594 33.6966 48 32.0833 48H2.91667C1.30612 48 0 46.6594 0 45C0 43.3406 1.30612 42 2.91667 42V40.9688C2.91667 36.9938 4.45339 33.1781 7.18776 30.3656L13.3711 24L7.18776 17.6344C4.45339 14.8219 2.91667 11.0063 2.91667 7.02938V6C1.30612 6 0 4.65656 0 3C0 1.34344 1.30612 0 2.91667 0H32.0833ZM10.1263 12H24.7917C25.7396 10.5375 26.25 8.81063 26.25 7.02938V6H8.75V7.02938C8.75 8.81063 9.26042 10.5375 10.1263 12ZM10.1263 36H24.7917C24.4727 35.5031 24.1081 35.0344 23.6888 34.6031L17.5 28.2469L11.3112 34.6031C10.8919 35.0344 10.5273 35.5031 10.1263 36Z" fill="white"/>
</svg>
