<svg width="55" height="48" viewBox="0 0 55 48" fill="none" xmlns="http://www.w3.org/2000/svg">
<path d="M13.75 3.525V27.525C13.75 29.4182 12.2106 30.8571 10.3125 30.8571H3.4375C1.53936 30.8571 0 29.3218 0 27.525V3.62143C0 1.72821 1.53936 0.289288 3.4375 0.289288H10.3125C12.2139 0.0964279 13.75 1.54285 13.75 3.525ZM55 27.4179C55 30.2571 52.6926 32.5586 49.8438 32.5586H34.1064C36.5524 36.6204 37.8146 41.2243 37.8146 42.8464C37.8125 45.3729 35.8252 48 32.4951 48C25.7136 48 29.6635 39.8411 20.8721 32.8286L19.1211 31.4357C17.8535 30.4179 17.209 28.9286 17.1982 27.4286C17.1957 27.4261 17.1982 27.4286 17.1982 27.4286L17.1875 10.2857C17.1875 8.66786 17.9516 7.14321 19.25 6.1725L22.9174 3.43071C25.8887 1.2 29.5088 0 33.2256 0H39.5312C42.3801 0 44.6875 2.30036 44.6875 5.14072C44.6875 5.53018 44.6359 5.90604 44.5537 6.27107C46.6211 6.94286 48.125 8.85 48.125 11.1429C48.125 12.123 47.8353 13.0296 47.3581 13.8086C49.7471 14.25 51.5625 16.3393 51.5625 18.8464C51.5625 20.1857 51.0369 21.3943 50.1961 22.3093C52.873 22.4893 55 24.6964 55 27.4179Z" fill="white"/>
</svg>
