<svg width="55" height="48" viewBox="0 0 55 48" fill="none" xmlns="http://www.w3.org/2000/svg">
<path d="M13.75 44.475V20.475C13.75 18.5818 12.2106 17.1429 10.3125 17.1429H3.4375C1.53936 17.1429 0 18.6782 0 20.475V44.3786C0 46.2718 1.53936 47.7107 3.4375 47.7107H10.3125C12.2139 47.9036 13.75 46.4571 13.75 44.475ZM55 20.5821C55 17.7429 52.6926 15.4414 49.8438 15.4414H34.1064C36.5524 11.3796 37.8146 6.77571 37.8146 5.15357C37.8125 2.62714 35.8252 0 32.4951 0C25.7136 0 29.6635 8.15893 20.8721 15.1714L19.1211 16.5643C17.8535 17.5821 17.209 19.0714 17.1982 20.5714C17.1957 20.5739 17.1982 20.5714 17.1982 20.5714L17.1875 37.7143C17.1875 39.3321 17.9516 40.8568 19.25 41.8275L22.9174 44.5693C25.8887 46.8 29.5088 48 33.2256 48H39.5312C42.3801 48 44.6875 45.6996 44.6875 42.8593C44.6875 42.4698 44.6359 42.094 44.5537 41.7289C46.6211 41.0571 48.125 39.15 48.125 36.8571C48.125 35.877 47.8353 34.9704 47.3581 34.1914C49.7471 33.75 51.5625 31.6607 51.5625 29.1536C51.5625 27.8143 51.0369 26.6057 50.1961 25.6907C52.873 25.5107 55 23.3036 55 20.5821Z" fill="white"/>
</svg>
